<?xml version="1.0" standalone="no"?>
<!DOCTYPE svg PUBLIC "-//W3C//DTD SVG 20010904//EN"
 "http://www.w3.org/TR/2001/REC-SVG-20010904/DTD/svg10.dtd">
<svg version="1.0" xmlns="http://www.w3.org/2000/svg"
 width="626.000000pt" height="626.000000pt" viewBox="0 0 626.000000 626.000000"
 preserveAspectRatio="xMidYMid meet">

<g transform="translate(0.000000,626.000000) scale(0.100000,-0.100000)"
fill="#000000" stroke="none">
<path d="M1274 5634 c-155 -55 -250 -297 -199 -512 19 -79 65 -171 112 -223
101 -112 245 -112 345 -1 70 77 127 235 128 350 0 64 -28 190 -55 241 -29 58
-89 118 -140 142 -48 22 -133 24 -191 3z m150 -65 c61 -17 122 -87 147 -171
30 -99 24 -248 -14 -331 -69 -150 -158 -206 -260 -163 -109 45 -190 243 -167
405 18 126 85 224 177 257 47 16 67 17 117 3z"/>
<path d="M1343 5439 c-112 -33 -124 -284 -17 -368 85 -67 180 36 179 194 -1
84 -30 146 -81 170 -36 17 -36 17 -81 4z m79 -59 c63 -49 56 -203 -11 -264
-46 -42 -108 18 -118 117 -7 66 9 120 44 147 32 25 54 25 85 0z"/>
<path d="M2534 5611 c-37 -16 -72 -68 -98 -148 -39 -116 -138 -541 -139 -595
-1 -67 12 -78 94 -78 67 0 70 1 89 33 12 17 30 65 42 105 l22 73 35 -3 c31 -3
36 -7 44 -38 40 -162 53 -180 126 -180 38 0 56 6 77 24 l28 23 -17 99 c-51
301 -98 553 -108 586 -19 59 -69 100 -126 104 -26 2 -57 0 -69 -5z m106 -71
c27 -15 47 -79 75 -245 13 -82 36 -210 50 -284 14 -73 25 -139 25 -146 0 -7
-12 -16 -27 -20 -39 -9 -57 18 -82 122 -11 47 -26 90 -33 94 -19 12 -136 11
-143 -1 -4 -6 -15 -42 -26 -81 -11 -39 -27 -85 -35 -101 -13 -25 -20 -29 -52
-26 -36 3 -37 4 -34 38 4 59 106 484 137 570 22 62 51 90 92 90 19 0 43 -4 53
-10z"/>
<path d="M2545 5346 c-22 -53 -48 -164 -41 -181 8 -23 134 -22 143 1 9 23 -14
183 -28 200 -6 8 -22 14 -36 14 -18 0 -28 -9 -38 -34z m55 -33 c0 -10 3 -42 6
-70 l7 -53 -38 0 c-37 0 -37 1 -31 32 15 75 28 108 41 108 8 0 15 -8 15 -17z"/>
<path d="M3077 5603 c-175 -60 -271 -323 -200 -548 52 -167 160 -275 274 -275
127 0 232 112 280 297 81 319 -114 609 -354 526z m178 -89 c49 -33 72 -59 96
-112 48 -109 45 -266 -8 -385 -32 -70 -117 -153 -167 -163 -41 -7 -108 20
-149 62 -133 134 -144 408 -24 550 63 74 181 97 252 48z"/>
<path d="M3102 5385 c-60 -50 -78 -162 -41 -259 54 -145 180 -141 224 7 29 98
14 190 -40 244 -43 43 -98 46 -143 8z m130 -55 c43 -58 31 -189 -22 -242 -36
-35 -45 -35 -80 2 -57 61 -64 180 -13 240 21 26 32 31 61 28 24 -2 41 -11 54
-28z"/>
<path d="M1751 5591 c-16 -16 -19 -43 -24 -257 -4 -131 -9 -291 -13 -354 -5
-102 -3 -119 14 -150 23 -41 55 -55 106 -46 43 8 71 46 80 110 12 87 25 592
16 631 -13 57 -49 85 -111 85 -34 0 -54 -5 -68 -19z m96 -47 c16 -4 24 -16 29
-40 7 -40 -12 -602 -21 -627 -11 -28 -41 -40 -66 -26 -21 11 -22 15 -15 163 3
83 9 232 12 331 3 99 7 186 9 193 5 13 18 15 52 6z"/>
<path d="M2064 5595 c-23 -15 -21 6 -40 -565 l-7 -185 28 -33 c22 -26 34 -32
67 -32 96 0 106 31 120 354 15 378 9 439 -49 465 -34 16 -95 14 -119 -4z m105
-60 c14 -14 17 -112 9 -321 -12 -348 -16 -374 -69 -374 -38 0 -42 36 -30 232
6 101 11 247 11 325 0 104 3 143 13 146 12 4 59 -1 66 -8z"/>
<path d="M3550 5570 c-18 -18 -20 -33 -20 -172 0 -84 -5 -235 -11 -335 -13
-205 -9 -240 28 -277 37 -37 103 -37 132 0 34 43 40 85 51 386 12 314 8 359
-35 396 -35 30 -116 31 -145 2z m115 -60 c17 -19 18 -37 8 -327 -6 -170 -14
-316 -18 -326 -11 -28 -41 -40 -66 -26 -21 11 -22 15 -15 158 3 80 9 229 12
331 3 102 7 191 9 198 7 19 50 14 70 -8z"/>
<path d="M3840 5570 c-18 -18 -20 -33 -20 -172 0 -84 -5 -235 -11 -336 -6
-101 -8 -198 -5 -216 10 -52 47 -86 94 -86 52 0 87 28 100 82 6 24 16 175 22
335 10 282 8 342 -17 379 -27 38 -130 47 -163 14z m114 -56 c12 -12 16 -37 16
-107 0 -142 -19 -532 -26 -551 -10 -27 -41 -38 -65 -25 -21 11 -22 15 -15 153
3 77 9 227 12 331 3 105 7 196 9 203 6 17 51 15 69 -4z"/>
<path d="M4163 5579 c-22 -6 -34 -17 -37 -32 -3 -12 -7 -107 -10 -212 -3 -104
-9 -260 -12 -345 -6 -134 -5 -160 10 -187 26 -51 75 -67 130 -42 45 21 57 65
66 257 12 234 12 475 0 506 -18 48 -86 74 -147 55z m84 -71 c6 -7 13 -24 16
-38 11 -41 -13 -592 -26 -620 -15 -31 -61 -40 -75 -13 -6 12 -5 111 4 278 8
143 12 270 9 283 -3 12 -3 45 1 72 6 46 9 50 34 50 15 0 32 -6 37 -12z"/>
<path d="M4590 5564 c-17 -15 -37 -39 -45 -54 -36 -69 -165 -595 -165 -671 0
-69 11 -79 86 -79 57 0 68 3 88 25 13 14 34 58 46 98 28 88 36 99 69 95 20 -2
27 -11 34 -38 27 -106 50 -162 73 -177 31 -20 107 -13 134 12 25 23 25 57 0
187 -11 57 -35 194 -55 306 -48 276 -74 322 -181 322 -42 0 -59 -5 -84 -26z
m138 -57 c26 -21 40 -70 67 -228 14 -85 37 -211 50 -282 34 -173 34 -177 -10
-177 -41 0 -47 10 -72 125 -9 39 -20 76 -26 83 -7 9 -32 12 -81 10 -66 -3 -71
-5 -78 -28 -40 -135 -51 -166 -63 -176 -7 -5 -30 -8 -50 -6 -42 5 -46 -29 26
277 68 289 94 369 132 401 32 27 73 28 105 1z"/>
<path d="M4636 5338 c-8 -13 -24 -61 -36 -108 -21 -81 -21 -85 -3 -98 11 -8
39 -12 73 -10 l55 3 -1 86 c-1 50 -8 99 -16 115 -17 37 -52 43 -72 12z m48
-65 c3 -21 6 -55 6 -75 0 -37 -1 -38 -35 -38 -21 0 -35 5 -35 13 0 11 23 92
35 125 9 24 22 12 29 -25z"/>
<path d="M5039 5571 c-24 -19 -24 -22 -31 -278 -12 -460 -12 -468 6 -495 25
-38 60 -50 107 -38 74 20 87 87 91 496 3 281 0 301 -49 323 -38 17 -98 13
-124 -8z m113 -65 c16 -24 0 -615 -17 -659 -10 -25 -53 -33 -73 -13 -14 14
-15 36 -4 228 7 117 12 268 12 335 0 88 3 123 13 126 17 7 61 -4 69 -17z"/>
<path d="M2670 4731 c-132 -43 -212 -148 -194 -254 3 -23 44 -114 89 -203 91
-177 120 -268 92 -288 -13 -10 -35 -7 -109 12 -117 30 -365 41 -515 22 -411
-51 -723 -245 -869 -538 -84 -168 -109 -339 -102 -685 4 -182 2 -247 -8 -275
-18 -50 -17 -152 1 -223 9 -32 38 -109 65 -172 82 -189 87 -260 31 -441 -45
-144 -41 -218 17 -279 84 -89 231 -105 411 -46 112 37 162 114 146 224 -15
103 -20 175 -13 175 4 0 34 -21 67 -48 85 -68 176 -119 253 -142 40 -13 101
-43 155 -79 48 -32 102 -65 120 -74 24 -13 46 -45 99 -144 l69 -128 3 -139 c3
-115 1 -145 -13 -177 -34 -75 -5 -156 71 -194 35 -18 63 -20 258 -23 264 -4
288 0 362 72 72 70 79 102 53 227 -11 53 -24 112 -30 130 -5 19 -12 88 -15
154 -8 165 -12 160 142 144 82 -8 196 -10 371 -5 l252 7 7 -38 c14 -74 9 -245
-9 -302 -21 -66 -22 -140 -3 -184 20 -46 82 -102 146 -131 73 -33 170 -48 311
-49 105 -1 121 1 165 24 54 28 88 71 105 132 22 83 -13 147 -106 193 -64 31
-63 26 -40 179 26 179 45 247 95 350 61 124 82 219 82 380 l1 120 53 90 c93
155 138 292 155 470 12 124 2 245 -30 358 l-19 69 38 76 c60 120 84 218 84
347 1 155 -39 287 -123 409 -17 25 -31 51 -31 58 0 22 64 167 130 294 53 102
62 128 62 171 0 143 -122 243 -307 251 -144 6 -262 -34 -433 -150 l-73 -49
-61 21 c-197 68 -440 76 -746 24 l-93 -16 -93 89 c-150 143 -273 204 -416 209
-47 2 -96 0 -110 -5z m36 -206 c63 -31 131 -90 177 -153 34 -48 100 -163 95
-167 -2 -1 -34 -19 -73 -39 -38 -21 -93 -55 -122 -77 l-52 -39 -17 53 c-21 62
-56 139 -123 267 -37 68 -51 106 -51 136 0 22 3 44 8 48 13 14 104 -3 158 -29z
m2231 -180 c-4 -26 -27 -81 -56 -132 -27 -48 -66 -128 -86 -178 -21 -49 -39
-92 -40 -94 -2 -1 -16 9 -32 23 -37 36 -117 89 -176 117 -26 13 -47 28 -47 34
0 17 49 86 94 133 73 77 210 140 305 141 l44 1 -6 -45z m-1620 -695 c26 -11
65 -35 86 -51 36 -29 39 -30 52 -13 11 16 15 17 30 4 15 -12 17 -26 12 -85 -7
-73 -23 -135 -37 -135 -4 0 -10 23 -14 51 -13 94 -55 152 -136 188 -48 21
-150 41 -212 41 -21 0 -38 4 -38 9 0 28 189 21 257 -9z m843 -18 c0 -5 -24
-16 -52 -25 -111 -35 -172 -116 -173 -229 0 -78 -16 -77 -40 5 -28 96 -14 168
29 151 12 -5 30 5 56 31 36 35 72 50 178 74 1 1 2 -3 2 -7z m-1030 -22 c0 -5
-4 -10 -10 -10 -5 0 -17 -14 -26 -32 -16 -30 -15 -76 1 -123 5 -14 -2 -11 -24
12 -37 40 -57 106 -42 140 9 19 18 23 56 23 25 0 45 -4 45 -10z m1220 -57 c0
-50 -21 -102 -52 -130 -21 -18 -21 -18 -14 2 15 39 18 92 6 115 -9 17 -14 19
-20 10 -10 -16 -43 -5 -37 13 2 6 12 11 21 11 13 -2 14 1 6 11 -9 11 -4 14 27
17 58 5 63 1 63 -49z m54 25 c17 -66 -4 -137 -57 -195 -77 -83 -144 -114 -254
-115 -67 0 -154 24 -139 40 4 4 56 7 114 7 95 0 113 3 162 26 100 48 153 119
154 206 1 56 9 69 20 31z m-1380 -114 c47 -78 185 -140 289 -130 32 3 69 9 82
12 41 10 30 -19 -17 -47 -65 -36 -155 -32 -236 10 -98 53 -145 112 -166 209
-11 49 5 62 19 15 7 -22 20 -53 29 -69z m350 59 c28 -42 47 -115 36 -133 -8
-12 -120 -31 -120 -20 0 4 9 15 20 25 28 26 42 83 30 125 -12 42 -12 40 0 40
5 0 21 -17 34 -37z m-49 6 c0 -7 -8 -15 -17 -17 -18 -3 -25 18 -11 32 10 10
28 1 28 -15z m713 -19 c-13 -40 -3 -89 28 -135 l25 -37 -48 7 c-76 11 -82 17
-72 70 9 49 23 80 47 108 23 26 32 20 20 -13z m-174 -537 c37 -78 31 -179 -16
-245 l-19 -28 74 0 c128 0 196 38 257 146 16 28 36 54 44 57 40 16 66 -26 47
-77 -6 -15 -11 -29 -11 -30 0 -2 20 -9 44 -15 60 -15 129 -14 201 4 107 26
111 18 23 -42 -95 -63 -202 -110 -318 -139 -58 -14 -141 -43 -185 -65 -235
-116 -532 -82 -772 87 -33 24 -99 58 -146 75 -91 32 -169 75 -254 140 -63 47
-69 65 -13 38 29 -14 61 -19 125 -19 94 0 110 8 147 78 32 61 72 54 95 -15 20
-60 84 -127 155 -162 59 -30 136 -43 123 -21 -4 6 -10 8 -14 6 -3 -3 -7 3 -8
12 -1 9 -5 40 -9 68 -4 37 -1 66 10 102 20 58 42 84 52 58 3 -8 39 -41 80 -72
81 -62 89 -82 54 -126 -11 -14 -40 -35 -65 -47 -25 -12 -43 -26 -40 -31 11
-18 41 -11 89 21 l47 31 22 -24 c30 -32 85 -54 99 -40 14 14 2 32 -22 32 -10
0 -32 16 -50 36 -26 30 -30 41 -24 68 3 17 11 33 18 35 20 8 115 103 121 122
9 28 19 23 39 -18z m-769 -342 c22 -10 78 -42 125 -71 169 -106 296 -144 485
-144 145 -1 202 12 315 69 36 18 99 40 140 48 41 9 94 23 118 31 23 8 42 11
42 7 0 -11 -77 -44 -168 -72 -63 -20 -79 -31 -143 -96 -81 -82 -129 -109 -217
-123 -141 -23 -287 32 -482 181 -95 73 -248 161 -263 152 -7 -3 -9 -3 -5 2 4
4 3 14 -3 22 -16 19 7 17 56 -6z m107 -395 c95 -47 223 -102 283 -123 105 -36
116 -38 230 -37 171 1 338 36 482 99 31 14 58 23 60 21 8 -8 -18 -48 -61 -94
-44 -48 -113 -97 -216 -154 -79 -44 -117 -84 -159 -164 -70 -132 -146 -125
-261 26 -70 92 -100 117 -245 204 -125 74 -215 148 -269 220 -35 47 -47 86
-26 86 5 0 87 -38 182 -84z m-809 -203 c-7 -2 -19 -2 -25 0 -7 3 -2 5 12 5 14
0 19 -2 13 -5z m-52 -280 c-12 -20 -14 -14 -5 12 4 9 9 14 11 11 3 -2 0 -13
-6 -23z m-1037 -174 c23 -18 31 -20 52 -10 39 17 70 13 103 -15 24 -20 34 -23
50 -15 33 18 106 13 132 -8 l24 -19 -21 -29 c-82 -114 -383 -122 -448 -12 -25
42 -25 97 -1 115 28 20 78 17 109 -7z m1176 -49 c13 -8 13 -10 -2 -10 -9 0
-20 5 -23 10 -8 13 5 13 25 0z m130 -117 c-11 -17 -11 -17 -6 0 3 10 7 26 7
35 1 15 2 15 6 0 2 -10 -1 -25 -7 -35z m-74 -58 c-20 -15 -36 -19 -36 -10 0 5
38 23 50 24 3 0 -4 -6 -14 -14z m372 -503 c28 -21 35 -22 77 -11 119 30 204
-48 125 -115 -52 -44 -117 -56 -291 -56 -179 0 -252 12 -286 46 -26 26 -30 66
-8 87 8 8 12 17 9 20 -3 3 32 4 78 3 79 -2 85 -1 117 27 31 26 40 29 91 25 37
-3 67 -12 88 -26z m1686 -24 c-1 -97 -102 -151 -249 -133 -50 7 -55 10 -55 32
0 40 51 83 98 83 32 0 47 7 76 36 32 32 40 35 83 32 l48 -3 -1 -47z"/>
</g>
</svg>
